<?xml version="1.0" encoding="UTF-8"?>
<svg id="Layer_1" data-name="Layer 1" xmlns="http://www.w3.org/2000/svg" viewBox="0 0 646 191.41">
  <path id="path11" d="M622.07,191.41H23.93c-13.16,0-23.93-10.77-23.93-23.93V23.93C0,10.77,10.77,0,23.93,0h598.15c13.16,0,23.93,10.77,23.93,23.93v143.56c0,13.16-10.77,23.93-23.93,23.93" style="fill: #0f0f0e;"/>
  <path id="path13" d="M622.07,0H23.93C10.77,0,0,10.77,0,23.93v143.56c0,13.16,10.77,23.93,23.93,23.93h598.15c13.16,0,23.93-10.77,23.93-23.93V23.93C646,10.77,635.23,0,622.07,0ZM622.07,3.83c11.08,0,20.1,9.02,20.1,20.1v143.56c0,11.08-9.02,20.1-20.1,20.1H23.93c-11.08,0-20.1-9.02-20.1-20.1V23.93C3.83,12.84,12.84,3.83,23.93,3.83h598.15" style="fill: #a3a2a1;"/>
  <path id="path35" d="M511.71,143.56h8.93v-59.83h-8.93v59.83ZM592.14,105.28l-10.24,25.94h-.31l-10.62-25.94h-9.62l15.93,36.25-9.09,20.16h9.31l24.55-56.41h-9.93ZM541.5,136.76c-2.92,0-7-1.46-7-5.08,0-4.62,5.08-6.39,9.47-6.39,3.92,0,5.78.85,8.16,2-.69,5.54-5.46,9.47-10.62,9.47h0ZM542.58,103.98c-6.46,0-13.16,2.85-15.93,9.16l7.92,3.31c1.69-3.31,4.85-4.39,8.16-4.39,4.62,0,9.31,2.77,9.39,7.7v.61c-1.62-.92-5.08-2.31-9.31-2.31-8.55,0-17.24,4.69-17.24,13.47,0,8,7.01,13.16,14.85,13.16,6,0,9.32-2.69,11.39-5.85h.31v4.62h8.62v-22.94c0-10.62-7.93-16.55-18.16-16.55h0ZM487.39,112.57h-12.7v-20.51h12.7c6.68,0,10.47,5.53,10.47,10.25s-3.79,10.25-10.47,10.25ZM487.16,83.73h-21.4v59.83h8.93v-22.66h12.47c9.9,0,19.62-7.16,19.62-18.58s-9.73-18.58-19.62-18.58h0ZM370.49,136.77c-6.17,0-11.33-5.17-11.33-12.26s5.16-12.41,11.33-12.41,10.87,5.24,10.87,12.41-4.78,12.26-10.87,12.26ZM380.75,108.63h-.31c-2-2.39-5.86-4.55-10.71-4.55-10.18,0-19.51,8.94-19.51,20.43s9.33,20.27,19.51,20.27c4.85,0,8.71-2.16,10.71-4.62h.31v2.93c0,7.79-4.16,11.95-10.87,11.95-5.47,0-8.86-3.93-10.25-7.25l-7.78,3.24c2.23,5.39,8.17,12.03,18.04,12.03,10.49,0,19.35-6.17,19.35-21.2v-36.54h-8.48v3.32ZM395.4,143.56h8.94v-59.83h-8.94v59.83ZM417.52,123.82c-.23-7.86,6.09-11.87,10.64-11.87,3.55,0,6.55,1.77,7.56,4.32l-18.2,7.56ZM445.27,117.04c-1.7-4.55-6.86-12.95-17.42-12.95s-19.2,8.25-19.2,20.35c0,11.41,8.64,20.35,20.2,20.35,9.33,0,14.73-5.7,16.96-9.02l-6.94-4.63c-2.31,3.39-5.47,5.63-10.02,5.63s-7.79-2.08-9.86-6.17l27.21-11.25-.93-2.31ZM228.46,110.33v8.63h20.66c-.62,4.86-2.24,8.4-4.7,10.87-3.01,3.01-7.71,6.32-15.96,6.32-12.72,0-22.66-10.25-22.66-22.97s9.94-22.97,22.66-22.97c6.86,0,11.87,2.7,15.57,6.17l6.09-6.09c-5.17-4.93-12.03-8.71-21.66-8.71-17.43,0-32.07,14.19-32.07,31.61s14.65,31.61,32.07,31.61c9.4,0,16.5-3.08,22.05-8.87,5.71-5.71,7.48-13.72,7.48-20.2,0-2-.16-3.85-.46-5.4h-29.06ZM281.48,136.77c-6.17,0-11.49-5.09-11.49-12.33s5.32-12.33,11.49-12.33,11.49,5.01,11.49,12.33-5.32,12.33-11.49,12.33ZM281.48,104.09c-11.26,0-20.43,8.56-20.43,20.35s9.17,20.35,20.43,20.35,20.43-8.63,20.43-20.35-9.17-20.35-20.43-20.35ZM326.05,136.77c-6.16,0-11.49-5.09-11.49-12.33s5.32-12.33,11.49-12.33,11.49,5.01,11.49,12.33-5.32,12.33-11.49,12.33ZM326.05,104.09c-11.25,0-20.43,8.56-20.43,20.35s9.17,20.35,20.43,20.35,20.43-8.63,20.43-20.35-9.17-20.35-20.43-20.35" style="fill: #fff;"/>
  <path id="path37" d="M99.12,92.95l-50.94,54.07s0,.02,0,.03c1.56,5.87,6.93,10.19,13.29,10.19,2.54,0,4.93-.69,6.98-1.9l.16-.1,57.35-33.09-26.84-29.22" style="fill: #e73434;"/>
  <path id="path39" d="M150.67,83.74l-.05-.03-24.76-14.35-27.89,24.82,27.99,27.99,24.63-14.21c4.32-2.33,7.25-6.88,7.25-12.13s-2.89-9.74-7.17-12.08" style="fill: #f7b70f;"/>
  <path id="path41" d="M48.17,44.39c-.31,1.13-.47,2.31-.47,3.54v95.55c0,1.23.16,2.41.47,3.54l52.7-52.69-52.7-49.94" style="fill: #5977ba;"/>
  <path id="path43" d="M99.5,95.71l26.37-26.36-57.28-33.21c-2.08-1.25-4.51-1.97-7.11-1.97-6.36,0-11.74,4.33-13.3,10.21,0,0,0,0,0,.01l51.32,51.32" style="fill: #41ad4a;"/>
  <path id="path33" d="M226.79,46.8h-13.96v3.45h10.46c-.28,2.82-1.41,5.03-3.3,6.64-1.89,1.61-4.31,2.42-7.16,2.42-3.13,0-5.79-1.09-7.96-3.26-2.13-2.21-3.22-4.95-3.22-8.25s1.08-6.03,3.22-8.25c2.18-2.17,4.83-3.25,7.96-3.25,1.61,0,3.14.28,4.55.88,1.41.61,2.53,1.45,3.42,2.53l2.65-2.65c-1.2-1.37-2.73-2.42-4.62-3.18-1.89-.76-3.87-1.13-6-1.13-4.18,0-7.72,1.45-10.62,4.34-2.89,2.9-4.34,6.47-4.34,10.7s1.45,7.81,4.34,10.7c2.89,2.89,6.44,4.34,10.62,4.34,4.39,0,7.89-1.41,10.58-4.26,2.37-2.38,3.58-5.59,3.58-9.62,0-.68-.08-1.41-.2-2.17h0ZM232.2,33.41v28.8h16.82v-3.54h-13.11v-9.14h11.83v-3.45h-11.83v-9.13h13.11v-3.54h-16.82ZM272.59,36.95v-3.54h-19.79v3.54h8.05v25.26h3.7v-25.26h8.05ZM290.51,33.41h-3.7v28.8h3.7v-28.8ZM314.94,36.95v-3.54h-19.79v3.54h8.04v25.26h3.7v-25.26h8.05ZM352.29,37.15c-2.86-2.94-6.36-4.39-10.54-4.39s-7.69,1.45-10.54,4.34c-2.86,2.86-4.26,6.44-4.26,10.7s1.41,7.84,4.26,10.7c2.86,2.89,6.36,4.34,10.54,4.34s7.68-1.45,10.54-4.34c2.86-2.86,4.26-6.44,4.26-10.7s-1.41-7.8-4.26-10.65ZM333.86,39.56c2.13-2.17,4.75-3.25,7.89-3.25s5.75,1.08,7.84,3.25c2.13,2.13,3.18,4.91,3.18,8.25s-1.05,6.12-3.18,8.25c-2.09,2.17-4.71,3.26-7.84,3.26s-5.76-1.09-7.89-3.26c-2.09-2.18-3.13-4.9-3.13-8.25s1.05-6.07,3.13-8.25ZM365.34,44.27l-.16-5.56h.16l14.64,23.49h3.87v-28.8h-3.7v16.85l.16,5.56h-.16l-14-22.41h-4.51v28.8h3.7v-17.94Z" style="fill: #fff; stroke: #fff; stroke-miterlimit: 10; stroke-width: .27px;"/>
</svg>